<svg xmlns="http://www.w3.org/2000/svg" xmlns:xlink="http://www.w3.org/1999/xlink" width="1200px" height="1200px" viewBox="0 0 1200 1200">
    <g style="" id="5963a1dc-88f0-42fe-8fb0-b4cb3e9fd646">
<g style=""><path d="M-310.32543 44.95559L-310.32543 32.26802L-283.28635 32.26802L-283.28635 38.09182L-278.71050 42.87566L-245.01565 42.87566L-240.43981 38.09182L-240.43981 29.14813L-245.22365 24.15630L-289.94212 24.15630L-309.49346 4.39697L-309.49346 -18.27426L-289.73413 -38.24158L-235.65597 -38.24158L-215.48066 -17.85827L-215.48066 -5.17070L-242.51974 -5.17070L-242.51974 -10.99451L-247.09558 -15.77834L-277.87853 -15.77834L-282.45438 -10.99451L-282.45438 -2.88278L-277.67054 2.10905L-232.95206 2.10905L-213.40073 21.86837L-213.40073 45.37157L-233.16006 65.33889L-290.15011 65.33889Z" fill="rgb(10, 113, 235)" transform="matrix(1.718681 0 0 1.718681 604.094025 528.509582) translate(0 0)"></path><path d="M-195.72133 44.12362L-195.72133 -17.02630L-174.71405 -38.24158L-117.72399 -38.24158L-96.30072 -16.61031L-96.30072 2.52503L-123.75578 2.52503L-123.75578 -7.66662L-131.03554 -14.94637L-160.98652 -14.94637L-168.26627 -7.66662L-168.26627 34.76394L-160.98652 42.04369L-131.03554 42.04369L-123.75578 34.76394L-123.75578 24.57228L-96.30072 24.57228L-96.30072 43.70763L-117.72399 65.33889L-174.71405 65.33889Z" fill="rgb(10, 113, 235)" transform="matrix(1.718681 0 0 1.718681 604.094025 528.509582) translate(0 0)"></path><path d="M-77.58136 -38.24158L-52.20622 -38.24158L-52.20622 -20.97817L-35.56679 -38.24158L-6.03179 -38.24158L-6.03179 -14.94637L-29.95098 -14.94637L-50.12629 5.85292L-50.12629 65.33889L-77.58136 65.33889Z" fill="rgb(10, 113, 235)" transform="matrix(1.718681 0 0 1.718681 604.094025 528.509582) translate(0 0)"></path><path d="M16.84743 44.12362L16.84743 -15.15436L-1.87194 -15.15436L-1.87194 -38.24158L17.26341 -38.24158L17.26341 -71.93643L44.30249 -71.93643L44.30249 -38.24158L75.91741 -38.24158L75.91741 -14.94637L44.30249 -14.94637L44.30249 35.17992L51.37425 42.04369L75.91741 42.04369L75.91741 65.33889L38.27070 65.33889Z" fill="rgb(10, 113, 235)" transform="matrix(1.718681 0 0 1.718681 604.094025 528.509582) translate(0 0)"></path><path d="M88.39699 44.12362L88.39699 -17.02630L109.40427 -38.24158L166.39433 -38.24158L187.81760 -16.61031L187.81760 2.52503L160.36254 2.52503L160.36254 -7.66662L153.08278 -14.94637L123.13180 -14.94637L115.85205 -7.66662L115.85205 34.76394L123.13180 42.04369L153.08278 42.04369L160.36254 34.76394L160.36254 24.57228L187.81760 24.57228L187.81760 43.70763L166.39433 65.33889L109.40427 65.33889Z" fill="rgb(10, 113, 235)" transform="matrix(1.718681 0 0 1.718681 604.094025 528.509582) translate(0 0)"></path><path d="M206.53696 -83.16805L233.99203 -83.16805L233.99203 -22.22612L250.00748 -38.24158L283.07836 -38.24158L306.16557 -15.15436L306.16557 65.33889L278.71050 65.33889L278.71050 -7.66662L271.63875 -14.94637L253.75135 -14.94637L233.99203 5.02095L233.99203 65.33889L206.53696 65.33889Z" fill="rgb(10, 113, 235)" transform="matrix(1.718681 0 0 1.718681 604.094025 528.509582) translate(0 0)"></path></g></g>

  </svg>